<svg style="object-fit:cover" id="my-svg" version="1" baseProfile="full" width="100%" height="100%" viewBox="0 0 1091 919" xmlns="http://www.w3.org/2000/svg"><rect width="1091" height="919" fill="#fdfcfc"/><path transform="scale(1, -1)" d="M 0,919 V 0,367 C 82.32738095238093,343.0357142857143 164.65476190476187,319.07142857142856 250,287 C 335.34523809523813,254.92857142857142 423.70833333333337,214.75000000000006 515,237 C 606.2916666666666,259.24999999999994 700.5119047619048,343.9285714285714 797,376 C 893.4880952380952,408.0714285714286 992.2440476190476,387.53571428571433 1091,367 C 1091,367 1091,919 1091,919 Z" stroke="none" stroke-width="0" fill="#f5b2ca80" class="transition-all duration-300 ease-in-out delay-150" style="transform-origin: center center;"/><path transform="scale(1, -1)" d="M 0,919 V 0,551 C 95.64880952380955,533.6428571428571 191.2976190476191,516.2857142857143 285,532 C 378.7023809523809,547.7142857142857 470.45833333333326,596.5 558,622 C 645.5416666666667,647.5 728.8690476190477,649.7142857142858 817,634 C 905.1309523809523,618.2857142857142 998.0654761904761,584.6428571428571 1091,551 C 1091,551 1091,919 1091,919 Z" stroke="none" stroke-width="0" fill="#f5b2ca90" class="transition-all duration-300 ease-in-out delay-150" style="transform-origin: center center;"/><path transform="scale(1, -1)" d="M 0,919 V 0,827 C 97.89880952380949,885.3928571428571 195.79761904761898,943.7857142857143 282,929 C 368.202380952381,914.2142857142857 442.70833333333337,826.2500000000001 529,780 C 615.2916666666666,733.7499999999999 713.3690476190476,729.2142857142857 809,744 C 904.6309523809524,758.7857142857143 997.8154761904761,792.8928571428571 1091,827 C 1091,827 1091,919 1091,919 Z" stroke="none" stroke-width="0" fill="#f5b2caff" class="transition-all duration-300 ease-in-out delay-150" style="transform-origin: center center;"/></svg>