<svg style="object-fit:cover" id="my-svg" version="1" baseProfile="full" width="100%" height="100%" viewBox="0 0 1138 919" xmlns="http://www.w3.org/2000/svg"><rect width="1138" height="919" fill="#e694ac"/><defs><linearGradient id="linear-gradient" x1="0" x2="1" y1="0" y2="1"><stop offset="0%" stop-color="#e00f0080"/><stop offset="100%" stop-color="#e1e3ea80"/></linearGradient></defs><path transform="scale(1, -1)" d="M 0,919 V 0,459 C 61.70598290598289,560.7666666666667 123.41196581196579,662.5333333333334 179,602 C 234.58803418803421,541.4666666666666 284.05811965811967,318.6333333333333 345,288 C 405.94188034188033,257.3666666666667 478.3555555555555,418.9333333333334 542,514 C 605.6444444444445,609.0666666666666 660.5196581196582,637.6333333333333 737,628 C 813.4803418803418,618.3666666666667 911.5658119658119,570.5333333333333 982,536 C 1052.434188034188,501.46666666666664 1095.217094017094,480.23333333333335 1138,459 C 1138,459 1138,919 1138,919 Z" stroke="none" stroke-width="0" fill="url(#linear-gradient)" class="transition-all duration-300 ease-in-out delay-150" style="transform-origin: center center;"/><defs><linearGradient id="linear-gradient" x1="0" x2="1" y1="0" y2="1"><stop offset="0%" stop-color="#e00f0090"/><stop offset="100%" stop-color="#e1e3ea90"/></linearGradient></defs><path transform="scale(1, -1)" d="M 0,919 V 0,689 C 65.95982905982905,756.8230769230769 131.9196581196581,824.6461538461538 196,807 C 260.0803418803419,789.3538461538462 322.2811965811966,686.2384615384616 389,622 C 455.7188034188034,557.7615384615384 526.9555555555555,532.4000000000001 592,517 C 657.0444444444445,501.59999999999997 715.8965811965812,496.1615384615384 765,531 C 814.1034188034188,565.8384615384616 853.4581196581196,640.9538461538461 914,674 C 974.5418803418804,707.0461538461539 1056.2709401709403,698.0230769230769 1138,689 C 1138,689 1138,919 1138,919 Z" stroke="none" stroke-width="0" fill="url(#linear-gradient)" class="transition-all duration-300 ease-in-out delay-150" style="transform-origin: center center;"/><defs><linearGradient id="linear-gradient" x1="0" x2="1" y1="0" y2="1"><stop offset="0%" stop-color="#e00f00ff"/><stop offset="100%" stop-color="#e1e3eaff"/></linearGradient></defs><path transform="scale(1, -1)" d="M 0,919 V 0,1033 C 64.8213675213675,1059.0153846153846 129.642735042735,1085.0307692307692 199,1086 C 268.357264957265,1086.9692307692308 342.25042735042746,1062.8923076923077 404,1045 C 465.74957264957254,1027.1076923076923 515.3555555555555,1015.4000000000001 577,985 C 638.6444444444445,954.5999999999999 712.3273504273506,905.5076923076924 774,923 C 835.6726495726494,940.4923076923076 885.3350427350426,1024.569230769231 944,1054 C 1002.6649572649574,1083.430769230769 1070.3324786324788,1058.2153846153847 1138,1033 C 1138,1033 1138,919 1138,919 Z" stroke="none" stroke-width="0" fill="url(#linear-gradient)" class="transition-all duration-300 ease-in-out delay-150" style="transform-origin: center center;"/></svg>