<svg style="object-fit:cover" id="my-svg" version="1" baseProfile="full" width="100%" height="100%" viewBox="0 0 1091 919" xmlns="http://www.w3.org/2000/svg"><rect width="1091" height="919" fill="#fdfcfc"/><path transform="scale(1, 1)" d="M 0,919 V 0,367 C 91.72023809523807,356.42857142857144 183.44047619047615,345.85714285714283 282,317 C 380.55952380952385,288.14285714285717 485.95833333333337,241.00000000000003 585,234 C 684.0416666666666,226.99999999999997 776.7261904761905,260.14285714285717 860,289 C 943.2738095238095,317.85714285714283 1017.1369047619048,342.42857142857144 1091,367 C 1091,367 1091,919 1091,919 Z" stroke="none" stroke-width="0" fill="#f5b2ca80" class="transition-all duration-300 ease-in-out delay-150" style="transform-origin: center center;"/><path transform="scale(1, 1)" d="M 0,919 V 0,551 C 97.36309523809521,576.3928571428571 194.72619047619042,601.7857142857143 283,627 C 371.2738095238096,652.2142857142857 450.45833333333337,677.25 541,654 C 631.5416666666666,630.75 733.4404761904761,559.2142857142857 827,534 C 920.5595238095239,508.78571428571433 1005.7797619047619,529.8928571428571 1091,551 C 1091,551 1091,919 1091,919 Z" stroke="none" stroke-width="0" fill="#f5b2ca90" class="transition-all duration-300 ease-in-out delay-150" style="transform-origin: center center;"/><path transform="scale(1, 1)" d="M 0,919 V 0,827 C 81.7202380952381,758.6071428571429 163.4404761904762,690.2142857142857 259,728 C 354.5595238095238,765.7857142857143 463.95833333333326,909.75 554,949 C 644.0416666666667,988.25 714.7261904761906,922.7857142857143 801,885 C 887.2738095238094,847.2142857142857 989.1369047619047,837.1071428571429 1091,827 C 1091,827 1091,919 1091,919 Z" stroke="none" stroke-width="0" fill="#f5b2caff" class="transition-all duration-300 ease-in-out delay-150" style="transform-origin: center center;"/></svg>